Coordinates
version=1
nRows=65
nColumns=12
inDegrees=yes

Units are S.I. units (second, meters, Newtons, ...)
Angles are in degrees

endheader
time	SC_y	SC_z	SC_x	AC_y	AC_z	AC_x	GH_y	GH_z	GH_yy	EL_x	PS_y
       0.0              -15.89          2.702          39.74          61.89          2.983         0.2616         -73.06          38.16         -43.01          82.28          153.9
   0.00722               -15.9          2.706          39.74          61.88          2.981         0.2591         -73.04          38.16         -43.01          82.29          153.9
   0.01444               -15.9           2.71          39.74          61.88          2.979         0.2564         -73.02          38.16         -43.01          82.29          153.9
   0.02166               -15.9          2.714          39.75          61.87          2.977         0.2536         -73.01          38.16         -43.01          82.29          153.8
   0.02888              -15.91          2.719          39.75          61.87          2.975         0.2506         -72.99          38.16         -43.02          82.29          153.8
    0.0361              -15.92          2.724          39.76          61.86          2.973         0.2473         -72.96          38.16         -43.02           82.3          153.8
   0.04332              -15.92          2.729          39.76          61.86          2.971         0.2439         -72.94          38.16         -43.02           82.3          153.8
   0.05054              -15.93          2.735          39.76          61.85          2.969         0.2402         -72.92          38.16         -43.02           82.3          153.8
   0.05776              -15.93          2.741          39.77          61.85          2.966         0.2363         -72.89          38.16         -43.03           82.3          153.8
   0.06498              -15.94          2.747          39.77          61.84          2.963          0.232         -72.86          38.16         -43.03          82.31          153.7
    0.0722              -15.95          2.754          39.78          61.83           2.96         0.2275         -72.83          38.16         -43.04          82.31          153.7
   0.07942              -15.96          2.761          39.79          61.83          2.957         0.2226          -72.8          38.16         -43.04          82.32          153.7
   0.08664              -15.97           2.77          39.79          61.82          2.954         0.2173         -72.76          38.17         -43.05          82.32          153.7
   0.09385              -15.98          2.778           39.8          61.81           2.95         0.2116         -72.73          38.17         -43.05          82.32          153.6
    0.1011              -15.99          2.788          39.81           61.8          2.946         0.2054         -72.68          38.17         -43.06          82.33          153.6
    0.1083               -16.0          2.798          39.82          61.79          2.942         0.1988         -72.64          38.17         -43.06          82.33          153.6
    0.1155              -16.01          2.809          39.82          61.78          2.937         0.1915         -72.59          38.17         -43.07          82.34          153.5
    0.1227              -16.02          2.821          39.83          61.77          2.932         0.1836         -72.54          38.17         -43.08          82.35          153.5
      0.13              -16.04          2.834          39.84          61.76          2.926         0.1749         -72.48          38.17         -43.08          82.35          153.4
    0.1372              -16.05          2.849          39.86          61.74           2.92         0.1655         -72.42          38.17         -43.09          82.36          153.4
    0.1444              -16.07          2.865          39.87          61.73          2.914         0.1551         -72.35          38.18          -43.1          82.37          153.3
    0.1516              -16.09          2.882          39.88          61.71          2.906         0.1436         -72.27          38.18         -43.11          82.38          153.3
    0.1588              -16.11          2.901           39.9          61.69          2.898          0.131         -72.19          38.18         -43.12          82.39          153.2
    0.1661              -16.14          2.923          39.92          61.67          2.889          0.117         -72.09          38.18         -43.14           82.4          153.1
    0.1733              -16.16          2.946          39.93          61.65          2.879         0.1014         -71.99          38.18         -43.15          82.41          153.0
    0.1805              -16.19          2.973          39.96          61.62          2.868        0.08407         -71.88          38.19         -43.17          82.42          152.9
    0.1877              -16.23          3.003          39.98          61.59          2.855        0.06462         -71.75          38.19         -43.18          82.44          152.8
    0.1949              -16.26          3.036          40.01          61.56          2.841        0.04274          -71.6          38.19          -43.2          82.46          152.7
    0.2021              -16.31          3.074          40.04          61.52          2.825        0.01801         -71.43           38.2         -43.23          82.48          152.6
    0.2094              -16.35          3.117          40.07          61.48          2.807       -0.01007         -71.25           38.2         -43.25           82.5          152.4
    0.2166              -16.41          3.166          40.11          61.43          2.786       -0.04211         -71.03          38.21         -43.28          82.52          152.2
    0.2238              -16.47          3.222          40.16          61.38          2.762       -0.07888         -70.79          38.21         -43.31          82.55          152.0
     0.231              -16.54          3.287          40.21          61.31          2.735        -0.1213         -70.51          38.22         -43.35          82.58          151.8
    0.2382              -16.63          3.362          40.27          61.24          2.703        -0.1707         -70.18          38.23          -43.4          82.62          151.5
    0.2455              -16.73           3.45          40.34          61.15          2.666        -0.2284         -69.79          38.24         -43.45          82.67          151.2
    0.2527              -16.84          3.554          40.42          61.05          2.622        -0.2964         -69.34          38.25         -43.51          82.72          150.9
    0.2599              -16.98          3.678          40.52          60.93          2.569        -0.3773          -68.8          38.26         -43.58          82.78          150.4
    0.2671              -17.14          3.826          40.64          60.79          2.507        -0.4742         -68.15          38.28         -43.67          82.86          149.9
    0.2743              -17.34          4.005          40.78          60.61          2.431        -0.5915         -67.37           38.3         -43.78          82.95          149.3
    0.2816              -17.59          4.224          40.96           60.4          2.338        -0.7348         -66.41          38.32         -43.91          83.06          148.5
    0.2888              -17.89          4.494          41.18          60.14          2.224        -0.9116         -65.23          38.35         -44.07           83.2          147.5
     0.296              -18.27           4.83          41.45          59.81          2.081         -1.132         -63.76          38.39         -44.27          83.37          146.3
    0.3032              -18.74          5.255          41.79          59.39          1.902          -1.41         -61.91          38.44         -44.52          83.59          144.8
    0.3104              -19.34          5.794          42.22          58.87          1.673         -1.763         -59.56          38.49         -44.84          83.87          142.9
    0.3177              -20.11          6.484          42.77          58.19          1.381         -2.215         -56.54          38.57         -45.25          84.22          140.5
    0.3249               -21.1           7.37          43.48          57.33          1.006         -2.795         -52.67          38.67         -45.77          84.68          137.3
    0.3321              -22.36          8.501          44.39          56.22         0.5266         -3.535         -47.73          38.79         -46.44          85.25          133.3
    0.3393              -23.95          9.924          45.53          54.84        -0.0758         -4.467         -41.52          38.94         -47.29          85.98          128.3
    0.3465              -25.88          11.66          46.92          53.14          -0.81         -5.602         -33.95          39.13         -48.31          86.87          122.1
    0.3538              -28.12          13.67          48.53          51.18         -1.661         -6.918         -25.17          39.35         -49.51           87.9          115.0
     0.361              -30.55          15.84          50.27          49.06         -2.582         -8.342         -15.67          39.59          -50.8          89.01          107.2
    0.3682              -32.98          18.02          52.02          46.93         -3.504         -9.767         -6.167          39.83         -52.09          90.13          99.52
    0.3754              -35.22          20.03          53.63          44.97         -4.355         -11.08          2.609          40.05         -53.28          91.16          92.38
    0.3826              -37.16          21.76          55.02          43.28         -5.089         -12.22          10.18          40.23          -54.3          92.05          86.23
    0.3899              -38.74          23.18          56.16          41.89         -5.691         -13.15          16.39          40.39         -55.15          92.77          81.18
    0.3971               -40.0          24.32          57.07          40.79         -6.171         -13.89          21.33          40.51         -55.82          93.35          77.16
    0.4043              -40.99           25.2          57.78          39.92         -6.546         -14.47           25.2          40.61         -56.34          93.81          74.02
    0.4115              -41.76          25.89          58.33          39.25         -6.838         -14.92          28.22          40.68         -56.75          94.16          71.57
    0.4187              -42.36          26.43          58.76          38.72         -7.066         -15.27          30.57          40.74         -57.07          94.44          69.65
     0.426              -42.84          26.86           59.1          38.31         -7.246         -15.55          32.42          40.79         -57.32          94.65          68.15
    0.4332              -43.21          27.19          59.37          37.98         -7.388         -15.77           33.9          40.83         -57.52          94.83          66.95
    0.4404              -43.51          27.46          59.59          37.71         -7.503         -15.95          35.07          40.86         -57.68          94.96          65.99
    0.4476              -43.76          27.68          59.76           37.5         -7.596         -16.09          36.03          40.88         -57.81          95.08          65.22
    0.4548              -43.96          27.86          59.91          37.33         -7.671         -16.21          36.81           40.9         -57.92          95.17          64.58
    0.4621              -44.12          28.01          60.03          37.18         -7.734         -16.31          37.46          40.92         -58.01          95.24          64.05
